<?xml version="1.0" encoding="iso-8859-1"?>
<!-- Generator: Adobe Illustrator 16.0.0, SVG Export Plug-In . SVG Version: 6.00 Build 0)  -->
<!DOCTYPE svg PUBLIC "-//W3C//DTD SVG 1.1//EN" "http://www.w3.org/Graphics/SVG/1.1/DTD/svg11.dtd">
<svg version="1.1" id="Capa_1" xmlns="http://www.w3.org/2000/svg" xmlns:xlink="http://www.w3.org/1999/xlink" x="0px" y="0px"
	 width="499.739px" height="499.739px" viewBox="0 0 499.739 499.739" style="enable-background:new 0 0 499.739 499.739;"
	 xml:space="preserve">
<g>
	<g>
		<path d="M110.147,101.523c28.03,0,50.759-22.728,50.759-50.761C160.907,22.725,138.178,0,110.147,0
			C82.111,0,59.387,22.725,59.387,50.762C59.387,78.796,82.112,101.523,110.147,101.523z"/>
		<path d="M425.354,254.137c15.383,0,28.986-11.354,31.681-26.514c1.557-8.759-0.624-17.943-5.987-25.044
			c-5.245-6.944-13.236-11.561-21.884-12.581c-8.812-1.039-17.812,1.648-24.588,7.382c-6.674,5.649-10.833,13.924-11.346,22.656
			c-0.521,8.824,2.667,17.608,8.743,24.032C408.018,250.457,416.558,254.137,425.354,254.137z"/>
		<path d="M482.056,316.389c-5.271-23.058-18.885-45.705-41.109-56.311c-12.453-5.941-26.194-4.628-38.066,5.213
			c-5.883,4.876-12.201,9.258-18.765,13.178c-3.523,2.104-7.161,4.062-10.966,5.609c-1.771,0.721-3.583,1.378-5.451,1.794
			c-0.888,0.197-1.771,0.236-2.62,0.171c0.59-1.601,0.938-3.309,0.956-5.084c0-20.719-0.176-23.178-0.396-27.061
			c-1.43-25.373-6.061-50.768-16.319-74.137c-9.849-22.428-25.676-43.062-47.041-55.544c-9.596-5.605-23.943-10.585-34.162-10.494
			s-19.035,2.3-28.699,7.347c-9.59,5.007-18.92,10.664-27.744,16.922c-8.174,5.799-16.058,12.267-22.77,19.761
			c-0.23,0.018-0.375,0.026-0.375,0.026s-3-5.543-4.651-8.194c-3.3-5.314-6.974-10.269-10.872-14.71
			c-3.895-4.444-8.009-8.371-12.107-11.721c-8.209-6.722-16.276-11.051-22.456-13.613c-3.103-1.29-5.734-2.156-7.843-2.736
			c-12.454-3.404-26.614-2.916-38.479-0.692c-0.94,0.183-1.847,0.4-2.915,0.692c-2.107,0.58-4.739,1.446-7.842,2.736
			c-6.179,2.563-14.247,6.892-22.456,13.614c-4.099,3.35-8.212,7.276-12.107,11.721c-3.897,4.441-7.57,9.396-10.87,14.71
			c-6.62,10.634-11.638,22.672-15.017,34.74c-3.412,12.083-5.256,24.193-6.187,35.405c-0.924,11.221-0.924,21.563-0.611,30.342
			c0.318,8.78,0.965,16.007,1.473,21.045c0.518,5.037,0.887,7.894,0.887,7.894l0.022,0.176c1.015,7.673,7.751,13.427,15.628,13.072
			c8.323-0.373,14.767-7.422,14.394-15.744c0,0-0.119-2.656-0.206-7.285c-0.079-4.627-0.112-11.229,0.259-19.053
			c0.375-7.816,1.148-16.865,2.727-26.251c1.575-9.379,3.954-19.102,7.35-28.097c1.907-5.104,4.154-9.943,6.639-14.394
			l-11.111,91.731c-0.515,4.473-0.565,9.376,0,14.042c1.16,9.575,4.588,18.315,9.663,25.776l7.815,164.797
			c0.452,8.942,7.646,16.321,16.774,16.729c9.7,0.436,17.915-7.075,18.352-16.774l5.581-124.483l5.802,124.514
			c0.445,8.943,7.632,16.327,16.76,16.744c9.7,0.443,17.921-7.062,18.365-16.761l7.551-165.376
			c7.382-11.155,11.001-24.886,9.266-39.208l-10.978-90.63c2.242,4.144,4.276,8.608,6.026,13.292
			c3.396,8.994,5.774,18.718,7.35,28.097c1.579,9.387,2.352,18.434,2.727,26.252c0.373,7.821,0.338,14.424,0.26,19.051
			c-0.087,4.63-0.206,7.285-0.206,7.285c-0.325,7.733,5.315,14.625,13.134,15.637c8.263,1.068,15.826-4.764,16.895-13.025
			l0.015-0.113c0,0,0.369-2.855,0.887-7.894c0.509-5.038,1.155-12.265,1.474-21.045c0.036-0.998,0.064-2.024,0.09-3.063
			c-0.044-0.99-0.103-1.979-0.154-2.969c1.768,1.026,3.547,2.008,5.324,2.939l-26.538,121.038c-0.481,2.465,0.155,4.99,1.749,6.927
			c1.597,1.938,3.951,3.051,6.462,3.051h27.098l5.204,104.532c0.484,9.339,8.332,17.011,17.691,17.208
			c9.208,0.193,17.302-6.872,18.341-16.026c0.041-0.372,0.072-0.746,0.093-1.119l5.571-104.595h2.906l5.203,104.532
			c0.484,9.338,8.332,17.011,17.691,17.208c9.208,0.193,17.303-6.871,18.342-16.026c0.041-0.372,0.071-0.746,0.092-1.119
			l5.571-104.595h26.225c2.504,0,4.855-1.108,6.452-3.04c1.595-1.934,2.236-4.453,1.751-6.961l-30.87-145.666v-11.765
			c9.367,22.223,12.988,46.123,14.969,70c0.043,0.526,0.086,1.054,0.129,1.58c0.538,6.248,4.907,11.406,10.591,13.334
			c-0.002,0.015-0.005,0.026-0.007,0.039c1.778,3.138,4.004,5.832,7.042,7.834c3.82,2.521,8.355,3.688,12.893,3.901
			c9.22,0.437,18.411-2.465,26.875-5.848l0.512,29.519l-16.23,73.74c-0.334,1.727,0.108,3.459,1.205,4.791
			c1.099,1.328,2.716,2.091,4.44,2.091h13.055l3.482,72.61c0.284,5.855,5.259,10.607,11.125,10.607
			c5.848,0.001,10.82-4.737,11.143-10.57l3.761-72.647h1.161l3.513,72.609c0.282,5.856,5.258,10.608,11.125,10.608
			c5.848,0.001,10.819-4.737,11.143-10.57l3.763-72.647h13.952c1.729,0,3.349-0.765,4.446-2.099c1.097-1.332,1.535-3.07,1.203-4.767
			l-16.396-73.739l0.345-11.133c4.699,12.459,6.391,25.758,7.492,38.943c0.424,5.084,4.946,9.028,10.042,8.748
			c4.957-0.271,8.973-4.486,9.038-9.445C485.933,344.014,485.194,330.12,482.056,316.389z M314.929,246.912
			c1.257-2.761,2.497-5.489-0.014,0.032c-2.512,5.521-1.271,2.793-0.016,0.032c-5.055,11.063-18.112,15.947-29.187,10.909
			l-32.559-14.81c4.809-4.734,4.869-12.701,0.104-17.48c-2.068-2.076-4.861-3.372-7.785-3.595c-1.748-0.134-3.484,0.202-5.221,0.354
			c-2.096,0.183-4.199,0.275-6.303,0.287c-0.158-1.334-0.211-2.688-0.121-4.046c-8.824,4.506-19.918,2.292-26.303-5.284
			c-5.316-6.31-6.561-15.334-3.146-22.844l0.584-1.28c3.768-8.286,12.621-13.414,21.688-12.545
			c9.648,0.924,17.66,8.444,19.227,18.001c0.307,1.87,0.365,3.78,0.172,5.666c5.731-2.834,12.643-3.166,18.914-0.313l39.01,17.744
			C315.049,222.779,319.946,235.833,314.929,246.912z"/>
		<path d="M261.303,110.936c2.213,0.283,4.444,0.423,6.676,0.423c18.026,0,35.11-9.588,44.532-24.952
			c9.558-15.583,10.166-35.625,1.572-51.76c-8.432-15.829-24.834-26.453-42.739-27.593c-18.074-1.149-35.787,7.365-46.172,22.206
			c-10.475,14.974-12.301,34.923-4.709,51.551C227.885,97.068,243.567,108.674,261.303,110.936z"/>
	</g>
</g>
<g>
</g>
<g>
</g>
<g>
</g>
<g>
</g>
<g>
</g>
<g>
</g>
<g>
</g>
<g>
</g>
<g>
</g>
<g>
</g>
<g>
</g>
<g>
</g>
<g>
</g>
<g>
</g>
<g>
</g>
</svg>
